<?xml version="1.0" encoding="utf-8"?>
<!-- Generator: Adobe Illustrator 16.0.0, SVG Export Plug-In . SVG Version: 6.00 Build 0)  -->
<!DOCTYPE svg PUBLIC "-//W3C//DTD SVG 1.1//EN" "http://www.w3.org/Graphics/SVG/1.1/DTD/svg11.dtd">
<svg version="1.1" id="Layer_1" xmlns="http://www.w3.org/2000/svg" xmlns:xlink="http://www.w3.org/1999/xlink" x="0px" y="0px"
	 width="1580px" height="1153px" viewBox="0 0 1580 1153" enable-background="new 0 0 1580 1153" xml:space="preserve">
<g>
	<linearGradient id="SVGID_1_" gradientUnits="userSpaceOnUse" x1="617.7432" y1="994.1094" x2="961.7568" y2="69.2614">
		<stop  offset="0" style="stop-color:#F9ED32"/>
		<stop  offset="0.4892" style="stop-color:#EE2A7B"/>
		<stop  offset="0.8981" style="stop-color:#AA35AF"/>
		<stop  offset="1" style="stop-color:#9838BC"/>
	</linearGradient>
	<path fill="url(#SVGID_1_)" d="M902.083,563.885c0-67.203-53.717-121.873-121.159-125.133v-0.313c-1.065,0-2.079,0.127-3.147,0.156
		c-1.047-0.029-2.086-0.156-3.148-0.156v0.313c-67.452,3.26-121.165,57.948-121.165,125.133c0,67.2,53.713,121.873,121.165,125.133
		v0.319c1.063,0,2.08-0.141,3.148-0.166c1.046,0.025,2.082,0.166,3.147,0.166v-0.319
		C848.366,685.758,902.083,631.063,902.083,563.885z M777.776,618.969c-29.59-1.654-53.14-25.545-53.14-55.084
		c0-29.532,23.55-53.433,53.14-55.081c29.59,1.648,53.129,25.549,53.129,55.081C830.905,593.424,807.366,617.314,777.776,618.969z"
		/>
	<linearGradient id="SVGID_2_" gradientUnits="userSpaceOnUse" x1="688.5547" y1="1020.123" x2="1032.6179" y2="95.1414">
		<stop  offset="0" style="stop-color:#F9ED32"/>
		<stop  offset="0.4892" style="stop-color:#EE2A7B"/>
		<stop  offset="0.8981" style="stop-color:#AA35AF"/>
		<stop  offset="1" style="stop-color:#9838BC"/>
	</linearGradient>
	<path fill="url(#SVGID_2_)" d="M936.54,404.978c28.913,0,52.36-23.073,52.36-51.534c0-28.478-23.447-51.535-52.36-51.535
		c-28.917,0-52.361,23.058-52.361,51.535C884.179,381.904,907.623,404.978,936.54,404.978z"/>
	<linearGradient id="SVGID_3_" gradientUnits="userSpaceOnUse" x1="765.7363" y1="1048.5361" x2="1109.7" y2="123.8226">
		<stop  offset="0" style="stop-color:#F9ED32"/>
		<stop  offset="0.4892" style="stop-color:#EE2A7B"/>
		<stop  offset="0.8981" style="stop-color:#AA35AF"/>
		<stop  offset="1" style="stop-color:#9838BC"/>
	</linearGradient>
	<path fill="url(#SVGID_3_)" d="M930.493,117.232l-152.717-1.244v107.369l106.957,1.243c110.539,0,200.166,88.195,200.166,196.999
		v284.57c0,108.791-89.627,196.986-200.166,196.986l-106.957,1.652v107.375l152.717-1.658
		c145.521,0,263.507-116.102,263.507-259.337v-374.62C1194,233.349,1076.015,117.232,930.493,117.232z"/>
	<linearGradient id="SVGID_4_" gradientUnits="userSpaceOnUse" x1="464.2988" y1="936.5488" x2="807.7708" y2="13.157">
		<stop  offset="0" style="stop-color:#F9ED32"/>
		<stop  offset="0.4892" style="stop-color:#EE2A7B"/>
		<stop  offset="0.8981" style="stop-color:#AA35AF"/>
		<stop  offset="1" style="stop-color:#9838BC"/>
	</linearGradient>
	<path fill="url(#SVGID_4_)" d="M658.846,178.928v29.497c0,5.725,1.26,11.245,3.432,16.508
		c-33.773,7.469-65.723,19.64-95.115,35.828c-2.131-4.268-4.835-8.184-8.299-11.584l-21.182-20.857
		c-24.48-24.098-73.482-14.941-109.434,20.44c-35.945,35.378-45.241,83.6-20.76,107.69l21.186,20.858
		c2.557,2.513,5.432,4.586,8.479,6.385c-17.81,28.588-31.544,59.899-40.452,93.138c-3.084-0.676-6.22-1.135-9.438-1.135h-29.966
		c-34.627,0-62.696,40.573-62.696,90.609c0,50.029,28.068,90.593,62.696,90.603h29.966c3.218,0,6.354-0.459,9.436-1.132
		c8.906,33.241,22.641,64.547,40.451,93.136c-3.051,1.799-5.928,3.865-8.485,6.378l-21.185,20.864
		c-24.487,24.098-15.186,72.319,20.77,107.7c35.939,35.382,84.933,44.528,109.432,20.424l21.184-20.845
		c3.457-3.399,6.168-7.328,8.293-11.583c29.379,16.188,61.332,28.365,95.105,35.827c-2.182,5.263-3.435,10.787-3.435,16.508
		l0.007,29.494c0,34.087,41.214,61.712,92.054,61.712v-99.364v-53.534V761.7c-3.429,0.179-6.879,0.269-10.358,0.269
		c-109.793,0-198.805-87.603-198.805-195.663c0-108.055,89.012-195.657,198.805-195.657c3.479,0,6.93,0.09,10.358,0.266V270.127
		V216.59v-99.358C700.063,117.232,658.846,144.857,658.846,178.928z"/>
</g>
</svg>
